<svg xmlns="http://www.w3.org/2000/svg" viewBox="0 0 267.34 93.8"><defs><style>.cls-1{fill:red;}</style></defs><title>Recurso 5</title><g id="Capa_2" data-name="Capa 2"><g id="Capa_1-2" data-name="Capa 1"><polygon class="cls-1" points="104.89 67.47 76.44 33.77 104.31 0 86.65 0 67.5 23.17 47.94 0 29.82 0 58.51 34.04 9.12 93.8 30.52 89.41 67.46 44.66 86.68 67.47 104.89 67.47"/><path d="M161.82,17.77a20.28,20.28,0,1,0,19,27.42h-10a11.16,11.16,0,0,1-10.5,4.74,11.33,11.33,0,0,1-9.44-9h31.06a20.83,20.83,0,0,0,.23-2.87,20.28,20.28,0,0,0-20.28-20.28ZM151.28,33.9a11.47,11.47,0,0,1,12.11-7.74,11.23,11.23,0,0,1,9.06,7.74Z"/><path d="M258,40.92h9.15a19.38,19.38,0,0,0,.23-2.87A20.35,20.35,0,1,0,266,45.19H256a11.16,11.16,0,0,1-10.5,4.74,11.31,11.31,0,0,1-9.43-9H258Zm-9.32-14.76a11.23,11.23,0,0,1,9.05,7.74H236.52A11.48,11.48,0,0,1,248.64,26.16Z"/><path d="M207.19,18a14.2,14.2,0,0,0-10.74,4.91V18.77h-8.9V57.2h8.9V34.72a8.05,8.05,0,1,1,16.1,0V57.2h8.9V32.26A14.25,14.25,0,0,0,207.19,18Z"/><path d="M131,18.77h-8.9V57.2H131V34.72a8.05,8.05,0,0,1,8.05-8.06,9.09,9.09,0,0,1,1.29.13V18.08A14.18,14.18,0,0,0,131,22.91Z"/><polygon points="112.15 6.58 103.33 6.58 103.33 18.77 97.39 18.77 97.39 26.75 103.33 26.75 103.33 57.2 112.15 57.2 112.15 26.75 118.28 26.75 118.28 18.77 112.15 18.77 112.15 6.58"/><polygon points="9.91 48.5 9.91 35.81 27.64 35.81 27.64 27.11 9.91 27.11 9.91 15.28 27.64 15.28 27.64 6.58 9.91 6.58 4.19 6.58 0 6.58 0 57.2 4.19 57.2 9.91 57.2 39.06 57.2 27.64 48.5 9.91 48.5"/></g></g></svg>